<svg version="1" xmlns="http://www.w3.org/2000/svg" width="933.333" height="933.333" viewBox="0 0 700.000000 700.000000"><path d="M39.9 176.2c-.1 4.2-.1 349.7 0 352 .1 1.7 15.6 1.8 310.1 1.8h310V173H40l-.1 3.2zm589.9 27.2c.2.3.4 67 .4 148.2 0 133.7-.1 147.8-1.5 148.3-2.5.9-557.6.5-558.4-.3-.4-.4-.8-67.2-.8-148.4V203.5l6-.5c7.5-.6 553.6-.2 554.3.4z"/><path d="M123.4 249.9c-.2.2-.4 48.2-.4 106.6v106.1l15.5.1c10.5 0 15.5-.4 15.6-1.1 0-.6.1-36.3.1-79.4.1-60.5.4-78 1.3-77 .6.7 7.2 10.6 14.6 22 16 24.7 24.5 37.8 39.9 61.3 6.3 9.6 12.6 19.3 14 21.5 1.4 2.2 9.6 15 18.4 28.3l15.9 24.3h13.3c7.3-.1 13.5-.3 13.7-.6.3-.3.8-34.9 1.2-77 .3-42 .7-76.6.9-76.7.1-.1 7.9 10.8 17.2 24.3 9.3 13.4 19 27.5 21.6 31.2 2.6 3.7 5.2 7.4 5.8 8.2 2.4 3.4 12.4 18 16.6 24 6.6 9.5 18.6 26.8 29.5 42.6 5.3 7.7 11.2 16.1 13.1 18.9l3.5 5 21.1.1c11.7 0 21.2-.1 21.2-.3 0-.4-24.9-36.6-29.4-42.8-1.5-2-33.2-47.7-82.9-119.5-15.5-22.3-29.7-42.8-31.7-45.5l-3.7-5h-18.9l-18.9.1v69.2c0 38-.1 69.2-.2 69.2s-6.6-9.3-14.5-20.8c-7.9-11.4-16.2-23.4-18.5-26.7-2.3-3.3-7.5-11-11.7-17-4.1-6.1-10.6-15.5-14.3-21-3.8-5.5-13.1-19-20.7-30s-14.4-20.7-15.2-21.5c-1.2-1.2-4.5-1.5-17-1.5-8.6 0-15.7.2-16 .4zM409.4 250.2c-.3.5.8 2.5 2.4 4.6 1.5 2 6.6 9.3 11.3 16.2 4.6 6.9 8.7 12.7 9 13 .3.3 5 7 10.5 15 19.9 29.1 24 35.1 30 43.7 23.2 33.6 36.5 53 59.1 85.8 10.5 15.4 20.2 29.5 21.5 31.2 2.2 3.1 2.5 3.2 9.7 3.3h7.3l-1.8-2.8c-1.6-2.5-11.3-16.6-42.3-61.5-16.7-24.1-33.1-47.9-39.8-57.7-17-24.9-61.7-89.6-62.4-90.4-1-1.2-13.8-1.5-14.5-.4zM431 249.8c0 .2 5.1 7.8 11.3 16.8 15.6 22.9 43.8 63.8 48.4 70.4 2.2 3 8.2 11.7 13.4 19.3 5.1 7.6 14.1 20.7 19.9 29 5.8 8.4 19.7 28.6 30.9 45 11.2 16.3 20.7 29.5 21 29.2.4-.2.6-4.8.5-10.2l-.1-9.8-7.8-11.5c-4.4-6.3-8.3-11.7-8.7-11.8-.4-.2-.8-.7-.8-1.2 0-.4-4.8-7.7-10.7-16.2-5.8-8.4-15.4-22.3-21.3-30.8-14.3-20.8-33.2-47.6-73.6-104.5l-9.9-14-6.2-.1c-3.5 0-6.3.1-6.3.4zM542.2 251.2c.6 1.6 33.2 48.7 33.8 48.8.3 0 .5-4.6.5-10.3l-.1-10.2-9.3-13.5c-5.1-7.4-9.5-14-9.8-14.6-.5-1.5-15.6-1.7-15.1-.2zM564.2 250.9c1 2.2 11.4 16.9 11.8 16.6.3-.2.5-4.1.5-8.7v-8.3l-6.3-.2c-3.5 0-6.2.2-6 .6zM405.9 257.6c-.1.5-.2 5.2-.3 10.4l-.1 9.5 10.7 15.5c5.9 8.5 13.7 19.9 17.5 25.4l6.8 9.8.3-10.7.3-10.7-4.9-6.6c-2.7-3.7-7.8-11-11.4-16.2-8.2-12.1-18-26.4-18.5-26.9-.1-.2-.4 0-.4.5zM542 272.3v10.9l16.8 24.3c9.2 13.4 17 24.4 17.3 24.4.3.1.5-4.6.5-10.2-.1-9.8-.3-10.6-3.1-14.8-1.6-2.4-8.5-12.2-15.2-21.9-6.7-9.6-13.1-18.8-14.2-20.5l-2.1-3v10.8zM405.5 299.4l.1 10.4 4 5.9c2.3 3.2 8.6 12.3 14.1 20.3s11.5 16.7 13.4 19.3l3.4 4.9.3-10.2c.2-9.1 0-10.5-2-13.8-1.2-2-2.7-4.2-3.3-4.9-.5-.6-7.3-10.4-15-21.7-7.7-11.3-14.2-20.5-14.6-20.6-.3 0-.5 4.7-.4 10.4zM542 304.4v10.8l10.2 14.7c5.6 8 13.1 18.9 16.6 24.1 3.6 5.2 6.8 9.8 7.2 10.3.3.4.6-4.1.6-10l-.1-10.8-8-11.5c-4.3-6.3-9.8-14.2-12.1-17.5-2.2-3.3-6.4-9.3-9.3-13.4l-5.1-7.5v10.8zM405.5 331.4l.1 10.3 6.4 9.4c10.6 15.6 18.8 27.3 19.7 28.4.5.5 2.5 3.6 4.6 6.7 2.1 3.2 3.9 5.8 4 5.8.1 0 .3-4.6.5-10.3l.2-10.3-16.5-24c-9.2-13.1-17.2-24.5-17.8-25.1-1-1-1.2 1-1.2 9.1zM542 336.6v10.9l17 24.4c9.3 13.4 17.1 24.6 17.3 24.7.2.2.3-4.5.3-10.4-.1-10.4-.2-11.1-3.1-15.3-1.6-2.4-3.2-4.6-3.5-4.9-.3-.3-3.9-5.5-8-11.5-4.1-6.1-10.3-15-13.7-19.9l-6.3-8.9v10.9zM405.8 353.7c-.3.5-.4 5.1-.4 10.4l.1 9.6 17 24.7c9.3 13.5 17.2 24.6 17.5 24.6.3 0 .5-4.6.5-10.2v-10.3l-17.2-24.8c-9.4-13.6-17.3-24.4-17.5-24zM542 369.1v10.1l13.3 19.2c7.2 10.5 14.8 21.5 16.7 24.3 1.9 2.9 3.8 5.3 4.1 5.3.3 0 .6-4.6.5-10.3l-.1-10.2-16.8-24.3c-9.3-13.3-17-24.2-17.3-24.2-.2 0-.4 4.6-.4 10.1zM405.8 385.7c-.2.4-.4 5.1-.4 10.4l.1 9.6 17 24.6c9.3 13.6 17.1 24.4 17.3 24.2.3-.2.5-4.9.5-10.3.1-9.8 0-10-3.4-14.8-3.9-5.3-13.4-19.1-24-34.7-3.7-5.4-6.9-9.4-7.1-9z"/></svg>