<svg enable-background="new 0 0 320 320" viewBox="0 0 320 320" xmlns="http://www.w3.org/2000/svg"><g fill="#fff"><path d="m301.8 242.3h-283.6v-163.2h283.5v163.2zm-270-13.6h256.3v-136h-256.3z"/><path d="m185.4 131.7v9.9l16.1 23.3.1-9.8zm0-14.6v9.8l16.2 23.5.1-9.8zm0 58.6v9.8l15.8 22.9.1-9.8zm0-14.7v9.9l15.9 23 .1-9.8zm78.1-38v-8.6h-5.9zm-70-8.9h-6.8l67.3 97.6h6.8zm-8.1 32.3v9.8l16 23.2.1-9.8zm48.4 11.5-31-43.8h-6l66.7 96.8v-9.9zm20.5-43.5h-6.6v.4l15.8 22.8v-9.8zm-121.9-.3h-17.4v63.6l-43.8-63.6h-15v97.4h14.3v-73l47.6 73h12.6l.5-71.1 49.3 71.1h19.5zm115.4 5.5v9.9l15.8 22.8v-9.9zm0 44v9.8l15.8 22.8v-9.8zm0-29.3v9.8l15.8 22.8v-9.8zm0 14.6v9.9l15.8 22.8v-9.9z"/></g></svg>