<svg xmlns="http://www.w3.org/2000/svg" viewBox="0 0 298.7 180"><style>.st0{fill:#fff}</style><path class="st0" d="M291.1 172.3H7.6V9.1h283.5v163.2zM21.2 158.7h256.3v-136H21.2v136z"/><path class="st0" d="M174.8 61.7v9.9l16.1 23.3.1-9.8zM174.8 47.1v9.8L191 80.4l.1-9.8zM174.8 105.7v9.8l15.8 22.9.1-9.8zM174.8 91v9.9l15.9 23 .1-9.8zM252.9 53v-8.6H247zM182.9 44.1h-6.8l67.3 97.6h6.8zM174.8 76.4v9.8l16 23.2.1-9.8zM223.2 87.9l-31-43.8h-6l66.7 96.8V131zM243.7 44.4h-6.6v.4l15.8 22.8v-9.8zM121.8 44.1h-17.4v63.6L60.6 44.1h-15v97.4h14.3v-73l47.6 73h12.6l.5-71.1 49.3 71.1h19.5zM237.1 49.6v9.9l15.8 22.8v-9.9zM237.1 93.6v9.8l15.8 22.8v-9.8zM237.1 64.3v9.8l15.8 22.8v-9.8zM237.1 78.9v9.9l15.8 22.8v-9.9z"/></svg>
