<svg xmlns="http://www.w3.org/2000/svg" viewBox="0 0 353.39 498.4"><defs><style>.cls-1{fill:#fff}</style></defs><g id="Ebene_2" data-name="Ebene 2"><g id="Ebene_1-2" data-name="Ebene 1"><path class="cls-1" d="M.39 351.91h353v37.01H.39zM.39 433.83h353v64.57H.39zM.39 286.6h353v20.41H.39zM.39 221.28h353v10.89H.39zM338.07 183.26a3.78 3.78 0 0 1 3.29-1.66 3.84 3.84 0 0 1 3.33 1.67 8 8 0 0 1 1.18 4.7q0 3.55-1.18 5.17a4.18 4.18 0 0 1-6.61 0 8.1 8.1 0 0 1-1.16-4.73 9 9 0 0 1 1.16-5.13m-7 5a11.53 11.53 0 0 0 2.8 8.18 10.8 10.8 0 0 0 15 0 11.33 11.33 0 0 0 2.79-8v-1.48a10.78 10.78 0 0 0-3.1-7.29 9.88 9.88 0 0 0-7.16-2.68 10.43 10.43 0 0 0-5.42 1.38 9.09 9.09 0 0 0-3.58 3.91 12.85 12.85 0 0 0-1.24 5.75zm-70.2-5.58a4.31 4.31 0 0 1 1 3v.46h-8.06a6 6 0 0 1 1.37-3.34 3.61 3.61 0 0 1 2.79-1.17 3.74 3.74 0 0 1 2.85 1.06m2.74 15.73a8.68 8.68 0 0 0 3.53-2.87l-2.85-3.19a6.25 6.25 0 0 1-5.23 2.43 5.12 5.12 0 0 1-3.58-1.28 5.38 5.38 0 0 1-1.69-3.41h13.81v-2.42q0-5.15-2.55-8a9 9 0 0 0-7-2.81 10 10 0 0 0-5.28 1.39 9.26 9.26 0 0 0-3.58 4 13.09 13.09 0 0 0-1.26 5.84v.56a10.4 10.4 0 0 0 3 7.8 10.65 10.65 0 0 0 7.77 2.92 11.57 11.57 0 0 0 4.93-1m-89.83-16.8a3.82 3.82 0 0 1 3.75 2.28v8.6a3.87 3.87 0 0 1-3.79 2.28 3.45 3.45 0 0 1-3.09-1.63 8.6 8.6 0 0 1-1.06-4.69q0-6.82 4.19-6.83m-7.67 14.8a7.36 7.36 0 0 0 6.14 3 6.81 6.81 0 0 0 5.57-2.7l.28 2.3h5.23v-30.77h-5.81v11.06a6.64 6.64 0 0 0-5.23-2.36 7.38 7.38 0 0 0-6.22 3 13.07 13.07 0 0 0-2.27 8.08q0 5.37 2.31 8.39m-72.27-22.52a3.71 3.71 0 0 0 4.71 0 3.06 3.06 0 0 0 0-4.31 3.75 3.75 0 0 0-4.74 0 3.07 3.07 0 0 0 0 4.31m5.26 3.45h-5.78V199h5.81zm-89.57-7.5H2.84L13 199h6.27l10.16-29.18H22.7l-6.61 21.94zM103.35 50.09h12.38v-2h-1.9c-1.06 0-2-.35-2-1.41a7 7 0 0 1 1.48-3.1l6.61-8.44 5.7 8.09c.7 1 1.83 2.74 1.83 3.52a1.52 1.52 0 0 1-1.69 1.34h-2.18v2h16.81v-2h-1.09c-.91 0-1.83-.77-3.45-3L125.3 30.46l7.7-10.2c.91-1.2 2.39-3 4-3h1.2v-2h-11.77v2h1.9c1.2 0 1.76.56 1.76 1.41a6.21 6.21 0 0 1-1.48 3.17l-4.78 6.54-4.5-6.4a6.25 6.25 0 0 1-1.33-3.19c0-1.12.77-1.48 1.83-1.48h1.41v-2h-16.83v2h1.41c1.41 0 2.53 1.2 3.94 3.24l8.8 12.38L110.39 43c-3.87 4.78-4.79 5.07-6.05 5.07h-1zm-17.66-8.58a6.82 6.82 0 0 1-6.75 6.82c-4.29 0-6.26-2.81-6.26-7 0-5.63 3.59-10.06 9.36-10.06a34.54 34.54 0 0 1 3.66.28zm14.21-.77h-2.46v1.76c0 2.18-.14 5.42-2.74 5.42-1.48 0-2-1.13-2-2.53V24.56c0-7.88-4.85-10.41-12.31-10.41-3.73 0-12.95 1.13-12.95 7.18A4.49 4.49 0 0 0 72 26.1a4 4 0 0 0 4.15-3.87c0-2.11-1.12-3-1.12-3.66 0-1.83 4.15-2.39 5.35-2.39 4.64 0 5.28 2.82 5.28 6.83v6.33c-1.41-.07-2.81-.14-4.22-.14-7.18 0-16.25 4.15-16.25 12.17 0 6.68 4.78 9.85 11 9.85 3.87 0 7.53-1.13 9.64-4.64.84 3.31 3.52 4.64 6.75 4.64 5.84 0 7.32-3.52 7.32-8.72zM0 50.09h14.49v-2h-2.6c-3.45 0-3.66-2.11-3.66-8V7.67h.14l17 39.47h2.53l17-39.47h.1V41.3c0 6.19-.42 6.76-3.24 6.76h-2.5v2h19.21v-2H56c-3.17 0-3.17-1.69-3.17-6.76v-35C52.84 3.66 53 2 55.3 2h3.17V0H44.53a58 58 0 0 1-2.39 6.61l-12.8 30.12L16.6 7.32A63.32 63.32 0 0 1 13.79 0H0v2h2.39c2.67 0 3 1.13 3 3.73V40c0 6.05 0 8-3 8H0zM307.72 121.6H321V81.21h4.92a10.91 10.91 0 0 1 5.42 1.41 7.09 7.09 0 0 1 3.1 6.05 7.76 7.76 0 0 1-3 6.4c-1.76 1.13-4.64 1.41-8 1.41h-2.14l13.58 25.12h13.72l-10.76-19.14a14.88 14.88 0 0 0 6.75-5.56 17.22 17.22 0 0 0 2.6-9.43c0-5.7-2-10.83-6.33-14.21-2.88-2.25-8-3.73-16.11-3.73h-17zm-37.85 0h29.48v-11.68h-16.19V101h15.69V89.3h-15.69v-8.09h16.18V69.53h-29.47zm-23.43 0h13.3V69.53h-13.3zm-37.85 0h29.48v-11.68h-16.19V101h15.69V89.3h-15.69v-8.09h16.18V69.53h-29.47zm-52.84 0l-.42-39 11.26 39h8.79l11.26-39-.42 39h12.24V69.53h-17.88l-9.5 33.56-9.78-33.56h-17.8v52.07zm-62.2-52.07V101c0 7.67.92 11.33 5.21 16s11.19 5.56 15 5.56c6.47 0 11.19-2.18 14.56-5.63s5.21-7.25 5.21-16v-31.4h-13.3V101a17.3 17.3 0 0 1-.84 6.54c-.77 1.9-2.46 3.38-5.77 3.38a5.86 5.86 0 0 1-5.84-3.66 16.91 16.91 0 0 1-.92-6.26V69.53zM55.84 121.6h29.48v-11.68H69.14V101h15.69V89.3H69.14v-8.09h16.18V69.53H55.84zM13.21 69.53H1.74v52.07h12.73l-.28-31.38L34.1 121.6h11.54V69.53H32.91l.28 31.73z"/><path fill="none" stroke="#fff" stroke-width="5.94" d="M1.08 144.9H353"/></g></g></svg>