<svg xmlns="http://www.w3.org/2000/svg" viewBox="0 0 62.9 58.7"><style>.st0{fill:none;stroke:#fff;stroke-width:.75;stroke-miterlimit:10}</style><path class="st0" d="M19.8 5.3c-1.6 2.1-4.1 2.9-4.1 2.9s0-2.7 1.6-4.8C18.9 1.3 21.4.5 21.4.5s0 2.7-1.6 4.8zm-2.3 6.5c-2.6.4-4.9-.9-4.9-.9S14.4 9 17 8.6c2.6-.4 5 .9 5 .9s-1.9 1.9-4.5 2.3zm-5.2 5.5c-2.3 1.3-4.9.9-4.9.9s1.1-2.5 3.4-3.7c2.3-1.3 4.9-.9 4.9-.9s-1.1 2.4-3.4 3.7zM9 25.5c-1.6 2.1-4.2 2.8-4.2 2.8s.1-2.7 1.7-4.8c1.6-2.1 4.2-2.8 4.2-2.8s-.1 2.7-1.7 4.8zm.3 8.7c-.7 2.6-2.8 4.3-2.8 4.3s-1-2.5-.3-5.1c.7-2.6 2.8-4.3 2.8-4.3s.9 2.5.3 5.1zm2.9 7.1c.5 2.6-.7 5-.7 5s-1.9-1.8-2.4-4.5c-.5-2.6.7-5 .7-5s2 1.9 2.4 4.5zm4.9 4.7c1.2 2.4.7 5 .7 5s-2.4-1.2-3.5-3.6c-1.2-2.4-.7-5-.7-5s2.3 1.2 3.5 3.6zm6.8 3.4c1.9 1.9 2.3 4.5 2.3 4.5s-2.6-.4-4.5-2.2c-1.9-1.9-2.3-4.5-2.3-4.5s2.6.3 4.5 2.2zm-17-30.9c.1 2.7-1.5 4.9-1.5 4.9s-1.6-2.1-1.7-4.8c0-2.7 1.5-4.9 1.5-4.9s1.7 2.2 1.7 4.8zm-2.7 11c1.4 2.3 1.1 5 1.1 5s-2.5-1-3.8-3.3c-1.4-2.3-1.1-5-1.1-5s2.4 1 3.8 3.3zM6 38.9C8.1 40.4 8.9 43 8.9 43s-2.7 0-4.8-1.5c-2.1-1.6-2.9-4.1-2.9-4.1s2.6-.1 4.8 1.5zm5.5 8.3c2.5.7 4.2 2.8 4.2 2.8s-2.5 1-5 .3-4.2-2.8-4.2-2.8 2.5-1 5-.3zm5.6 4.4c2.6-.2 4.8 1.3 4.8 1.3s-2 1.7-4.6 1.9c-2.6.2-4.8-1.3-4.8-1.3s2-1.7 4.6-1.9zm7.4 3.3c2.5-.8 5 .1 5 .1s-1.5 2.2-4.1 3c-2.5.8-5-.1-5-.1s1.6-2.2 4.1-3zM12.1 10.7c-.8 2.5-3 4.1-3 4.1s-.8-2.6 0-5.1c.8-2.5 3-4.1 3-4.1s.8 2.5 0 5.1zm31-5.4c1.6 2.1 4.1 2.9 4.1 2.9s0-2.7-1.6-4.8C44 1.3 41.5.5 41.5.5s0 2.7 1.6 4.8zm2.3 6.5c2.6.4 4.9-.9 4.9-.9S48.4 9 45.8 8.6c-2.6-.4-4.9.9-4.9.9s1.9 1.9 4.5 2.3zm5.2 5.5c2.3 1.3 4.9.9 4.9.9s-1.1-2.5-3.4-3.7c-2.3-1.3-4.9-.9-4.9-.9s1.1 2.4 3.4 3.7zm3.3 8.2c1.6 2.1 4.2 2.8 4.2 2.8s-.1-2.7-1.7-4.8c-1.6-2.1-4.2-2.8-4.2-2.8s.1 2.7 1.7 4.8zm-.3 8.7c.7 2.6 2.8 4.3 2.8 4.3s1-2.5.3-5.1c-.7-2.6-2.8-4.3-2.8-4.3s-1 2.5-.3 5.1zm-3 7.1c-.5 2.6.7 5 .7 5s1.9-1.8 2.4-4.5c.5-2.6-.7-5-.7-5s-1.9 1.9-2.4 4.5zM45.8 46c-1.2 2.4-.7 5-.7 5s2.4-1.2 3.5-3.6c1.2-2.4.7-5 .7-5s-2.4 1.2-3.5 3.6zM39 49.4c-1.9 1.9-2.3 4.5-2.3 4.5s2.6-.4 4.5-2.2c1.9-1.9 2.3-4.5 2.3-4.5s-2.7.3-4.5 2.2zm16.9-30.9c0 2.7 1.5 4.9 1.5 4.9s1.6-2.1 1.7-4.8c0-2.7-1.5-4.9-1.5-4.9s-1.6 2.2-1.7 4.8zm2.8 11c-1.4 2.3-1.1 5-1.1 5s2.5-1 3.8-3.3c1.4-2.3 1.1-5 1.1-5s-2.5 1-3.8 3.3zm-1.8 9.4C54.8 40.4 54 43 54 43s2.7 0 4.8-1.5c2.1-1.6 2.9-4.1 2.9-4.1s-2.7-.1-4.8 1.5zm-5.6 8.3c-2.5.7-4.2 2.8-4.2 2.8s2.5 1 5 .3 4.2-2.8 4.2-2.8-2.5-1-5-.3zm-5.6 4.4c-2.6-.2-4.8 1.3-4.8 1.3s2 1.7 4.6 1.9c2.6.2 4.8-1.3 4.8-1.3s-2-1.7-4.6-1.9zm-7.3 3.3c-2.5-.8-5 .1-5 .1s1.5 2.2 4.1 3c2.5.8 5-.1 5-.1s-1.6-2.2-4.1-3zm12.4-44.2c.8 2.5 3 4.1 3 4.1s.8-2.6 0-5.1c-.8-2.5-3-4.1-3-4.1s-.8 2.5 0 5.1z"/></svg>
